<svg width="400" height="400" viewBox="0 0 400 400" fill="none" xmlns="http://www.w3.org/2000/svg">
<rect width="400" height="400" fill="#1D1B19"/>
<path d="M182.637 59.0253C182.875 57.8841 183 56.7055 183 55.5C183 53.9553 182.795 52.4548 182.41 51.0205C188.179 50.3465 194.049 50 200 50C282.843 50 350 117.157 350 200C350 282.843 282.843 350 200 350C117.157 350 50 282.843 50 200C50 194.228 50.326 188.532 50.9606 182.93C52.1753 184.254 53.5475 185 55 185C56.4494 185 57.8187 184.258 59.0315 182.939C60.4823 250.617 111.947 305 180 305C249.036 305 305 249.036 305 180C305 111.846 250.455 60.3295 182.637 59.0253Z" fill="#FFF6F1"/>
<path d="M59 183C59 185.209 57.2091 187 55 187C52.7909 187 51 185.209 51 183C51 180.791 52.7909 179 55 179C57.2091 179 59 180.791 59 183Z" fill="#FFF6F1"/>
<path d="M187 55C187 57.2091 185.209 59 183 59C180.791 59 179 57.2091 179 55C179 52.7909 180.791 51 183 51C185.209 51 187 52.7909 187 55Z" fill="#FFF6F1"/>
<path d="M223.256 115.19C252.546 144.48 252.546 191.967 223.256 221.256C193.967 250.546 146.48 250.546 117.19 221.256C87.901 191.967 87.901 144.48 117.19 115.19C146.48 85.9011 193.967 85.9011 223.256 115.19Z" fill="#FFF6F1"/>
</svg>
