<svg width="1581" height="300" viewBox="0 0 1581 300" fill="none" xmlns="http://www.w3.org/2000/svg">
<path d="M129 5C129 2.98938 130.483 1.32524 132.416 1.04239L132.41 1.02047C138.179 0.346517 144.049 0 150 0C232.843 0 300 67.1573 300 150C300 232.843 232.843 300 150 300C67.1573 300 0 232.843 0 150C0 144.228 0.325996 138.532 0.960579 132.93L1.00009 132.973C1.01454 130.776 2.79982 129 5 129C7.20018 129 8.98546 130.776 8.99991 132.973L9.03147 132.939C10.4823 200.617 61.9468 255 130 255C199.036 255 255 199.036 255 130C255 61.8457 200.455 10.3295 132.637 9.02533L132.646 8.98453C130.603 8.80524 129 7.08977 129 5Z" fill="#FFF6F1"/>
<path d="M173.256 171.256C202.546 141.967 202.546 94.4797 173.256 65.1904C143.967 35.9011 96.4796 35.9011 67.1903 65.1904C37.901 94.4797 37.901 141.967 67.1903 171.256C96.4796 200.546 143.967 200.546 173.256 171.256Z" fill="#FFF6F1"/>
<path d="M480.821 247.343C501.858 247.343 520.657 244.21 537.218 237.943V205.717C520.657 212.878 502.753 216.459 483.507 216.459C437.405 216.459 414.354 193.408 414.354 147.306C414.354 104.785 437.405 83.5244 483.507 83.5244C502.753 83.5244 520.657 87.1051 537.218 94.2666V62.04C520.657 55.7738 501.858 52.6406 480.821 52.6406C411.892 52.6406 377.428 84.1958 377.428 147.306C377.428 213.997 411.892 247.343 480.821 247.343Z" fill="#FFF6F1"/>
<path fill-rule="evenodd" clip-rule="evenodd" d="M636.041 104.606C589.491 104.606 566.216 128.239 566.216 175.504C566.395 222.68 589.67 246.269 636.041 246.269C682.59 246.269 705.865 222.68 705.865 175.504C705.865 128.239 682.59 104.606 636.041 104.606ZM636.041 219.145C613.213 219.145 601.8 204.419 601.8 174.967C601.8 146.232 613.213 131.864 636.041 131.864C658.868 131.864 670.281 146.232 670.281 174.967C670.281 204.419 658.868 219.145 636.041 219.145Z" fill="#FFF6F1"/>
<path d="M765.747 105.009H738.22V246H773.804V147.978C783.024 138.489 792.826 133.744 803.21 133.744C816.28 133.744 822.815 141.711 822.815 157.646V246H858.398V147.978C868.156 138.489 878.316 133.744 888.879 133.744C903.023 133.744 910.095 141.577 910.095 157.243V246H945.679V158.585C945.679 122.868 929.476 105.009 897.07 105.009C881.315 105.009 866.231 111.454 851.819 124.345C845.284 111.454 833.154 105.009 815.43 105.009C797.705 105.009 782.532 111.812 769.91 125.419L765.747 105.009Z" fill="#FFF6F1"/>
<path fill-rule="evenodd" clip-rule="evenodd" d="M1044.23 105.009C1023.38 105.009 1003.59 106.933 984.882 110.783V297.025H1020.47V239.286C1030.13 243.762 1039.71 246 1049.2 246C1093.78 246 1116.07 221.338 1116.07 172.013C1116.07 127.344 1092.13 105.009 1044.23 105.009ZM1049.07 216.459C1038.86 216.459 1029.33 214.042 1020.47 209.208V135.624C1027.18 134.371 1035.59 133.744 1045.71 133.744C1069.16 133.744 1080.89 146.411 1080.89 171.745C1080.89 201.554 1070.28 216.459 1049.07 216.459Z" fill="#FFF6F1"/>
<path fill-rule="evenodd" clip-rule="evenodd" d="M1211.67 104.606C1165.12 104.606 1141.85 128.239 1141.85 175.504C1142.03 222.68 1165.3 246.269 1211.67 246.269C1258.22 246.269 1281.5 222.68 1281.5 175.504C1281.5 128.239 1258.22 104.606 1211.67 104.606ZM1211.67 219.145C1188.84 219.145 1177.43 204.419 1177.43 174.967C1177.43 146.232 1188.84 131.864 1211.67 131.864C1234.5 131.864 1245.91 146.232 1245.91 174.967C1245.91 204.419 1234.5 219.145 1211.67 219.145Z" fill="#FFF6F1"/>
<path d="M1313.85 209.745V239.286C1329.52 244.657 1347.15 247.343 1366.76 247.343C1406.68 247.343 1426.64 232.572 1426.64 203.031C1426.64 174.833 1410.98 160.734 1379.65 160.734H1356.82C1345.63 160.734 1340.04 156.034 1340.04 146.635C1340.04 136.788 1349.66 131.864 1368.9 131.864C1387.26 131.864 1404.26 134.997 1419.93 141.264V111.723C1404.26 106.352 1387.57 103.666 1369.84 103.666C1328.04 103.666 1307.14 118.437 1307.14 147.978C1307.14 176.176 1321.46 190.275 1350.11 190.275H1375.62C1385.91 190.275 1391.06 194.975 1391.06 204.374C1391.06 214.221 1383.41 219.145 1368.1 219.145C1347.6 219.145 1329.52 216.011 1313.85 209.745Z" fill="#FFF6F1"/>
<path fill-rule="evenodd" clip-rule="evenodd" d="M1580.79 170.536C1580.79 126.851 1559.39 105.009 1516.6 105.009C1472.47 105.009 1450.41 127.97 1450.41 173.893C1450.41 221.964 1475.96 246 1527.08 246C1544.89 246 1560.02 244.657 1572.46 241.972V213.773C1558.23 216.459 1544 217.802 1529.76 217.802C1500.58 217.802 1485.99 207.865 1485.99 187.992H1579.58C1580.39 182.174 1580.79 176.355 1580.79 170.536ZM1546.15 163.285H1485.99C1487.6 143.054 1497.81 132.938 1516.6 132.938C1536.3 132.938 1546.15 142.696 1546.15 162.211V163.285Z" fill="#FFF6F1"/>
</svg>
